<svg width="1600" height="716" xmlns="http://www.w3.org/2000/svg"><g><path d="M-25,-13L-34,34L34,57Z" fill="#006fa8" stroke="#006fa8"/><path d="M-25,-13L34,57L65,-75Z" fill="#006ea6" stroke="#006ea6"/><path d="M65,-75L34,57L119,11Z" fill="#006fa8" stroke="#006fa8"/><path d="M65,-75L119,11L170,-11Z" fill="#006fa8" stroke="#006fa8"/><path d="M65,-75L170,-11L260,-21Z" fill="#0070a8" stroke="#0070a8"/><path d="M65,-75L260,-21L522,-61Z" fill="#0070a9" stroke="#0070a9"/><path d="M65,-75L522,-61L928,-68Z" fill="#0075ad" stroke="#0075ad"/><path d="M65,-75L928,-68L1550,-88Z" fill="#037bb0" stroke="#037bb0"/><path d="M170,-11L119,11L166,130Z" fill="#0074af" stroke="#0074af"/><path d="M170,-11L166,130L236,88Z" fill="#0076b2" stroke="#0076b2"/><path d="M170,-11L236,88L260,-21Z" fill="#0073ae" stroke="#0073ae"/><path d="M260,-21L236,88L378,85Z" fill="#0076b3" stroke="#0076b3"/><path d="M260,-21L378,85L390,-24Z" fill="#0076b1" stroke="#0076b1"/><path d="M260,-21L390,-24L522,-61Z" fill="#0074ad" stroke="#0074ad"/><path d="M390,-24L378,85L462,24Z" fill="#0078b4" stroke="#0078b4"/><path d="M390,-24L462,24L451,-15Z" fill="#0077b2" stroke="#0077b2"/><path d="M390,-24L451,-15L522,-61Z" fill="#0076b0" stroke="#0076b0"/><path d="M451,-15L462,24L522,-61Z" fill="#0078b1" stroke="#0078b1"/><path d="M522,-61L462,24L563,68Z" fill="#017ab5" stroke="#017ab5"/><path d="M522,-61L563,68L684,-17Z" fill="#017bb4" stroke="#017bb4"/><path d="M522,-61L684,-17L734,-28Z" fill="#017ab2" stroke="#017ab2"/><path d="M522,-61L734,-28L928,-68Z" fill="#017ab1" stroke="#017ab1"/><path d="M684,-17L563,68L638,72Z" fill="#017eb9" stroke="#017eb9"/><path d="M684,-17L638,72L722,39Z" fill="#017eb8" stroke="#017eb8"/><path d="M684,-17L722,39L734,-28Z" fill="#017db6" stroke="#017db6"/><path d="M734,-28L722,39L878,50Z" fill="#027fb8" stroke="#027fb8"/><path d="M734,-28L878,50L868,-47Z" fill="#037fb6" stroke="#037fb6"/><path d="M734,-28L868,-47L928,-68Z" fill="#037db3" stroke="#037db3"/><path d="M868,-47L878,50L916,62Z" fill="#0382ba" stroke="#0382ba"/><path d="M868,-47L916,62L928,-68Z" fill="#037fb6" stroke="#037fb6"/><path d="M928,-68L916,62L1060,75Z" fill="#0381b9" stroke="#0381b9"/><path d="M928,-68L1060,75L1079,-45Z" fill="#047eb6" stroke="#047eb6"/><path d="M928,-68L1079,-45L1187,-47Z" fill="#087eb4" stroke="#087eb4"/><path d="M928,-68L1187,-47L1550,-88Z" fill="#1585b6" stroke="#1585b6"/><path d="M1079,-45L1060,75L1137,80Z" fill="#0b86bd" stroke="#0b86bd"/><path d="M1079,-45L1137,80L1187,-47Z" fill="#1086ba" stroke="#1086ba"/><path d="M1187,-47L1137,80L1213,21Z" fill="#1489bd" stroke="#1489bd"/><path d="M1187,-47L1213,21L1225,-23Z" fill="#1587ba" stroke="#1587ba"/><path d="M1187,-47L1225,-23L1379,-30Z" fill="#1687b9" stroke="#1687b9"/><path d="M1187,-47L1379,-30L1550,-88Z" fill="#0e85b7" stroke="#0e85b7"/><path d="M1225,-23L1213,21L1352,80Z" fill="#168bbe" stroke="#168bbe"/><path d="M1225,-23L1352,80L1379,-30Z" fill="#168abd" stroke="#168abd"/><path d="M1379,-30L1352,80L1462,68Z" fill="#098abf" stroke="#098abf"/><path d="M1379,-30L1462,68L1489,-46Z" fill="#0287bc" stroke="#0287bc"/><path d="M1379,-30L1489,-46L1550,-88Z" fill="#0082b7" stroke="#0082b7"/><path d="M1489,-46L1462,68L1558,35Z" fill="#0086be" stroke="#0086be"/><path d="M1489,-46L1558,35L1550,-88Z" fill="#0082b8" stroke="#0082b8"/><path d="M1550,-88L1558,35L1658,-51Z" fill="#0081b8" stroke="#0081b8"/><path d="M1658,-51L1558,35L1663,81Z" fill="#0084bd" stroke="#0084bd"/><path d="M1658,-51L1663,81L1689,287Z" fill="#0086c3" stroke="#0086c3"/><path d="M-34,34L-62,288L-31,134Z" fill="#0074af" stroke="#0074af"/><path d="M-34,34L-31,134L34,57Z" fill="#0072ac" stroke="#0072ac"/><path d="M34,57L-31,134L82,150Z" fill="#0074af" stroke="#0074af"/><path d="M34,57L82,150L119,11Z" fill="#0074af" stroke="#0074af"/><path d="M119,11L82,150L166,130Z" fill="#0076b2" stroke="#0076b2"/><path d="M236,88L166,130L224,115Z" fill="#0078b5" stroke="#0078b5"/><path d="M236,88L224,115L349,133Z" fill="#0078b6" stroke="#0078b6"/><path d="M236,88L349,133L378,85Z" fill="#0079b7" stroke="#0079b7"/><path d="M378,85L349,133L476,189Z" fill="#007dbb" stroke="#007dbb"/><path d="M378,85L476,189L535,132Z" fill="#007fbc" stroke="#007fbc"/><path d="M378,85L535,132L462,24Z" fill="#007db9" stroke="#007db9"/><path d="M462,24L535,132L563,68Z" fill="#017eba" stroke="#017eba"/><path d="M563,68L535,132L638,72Z" fill="#0180bc" stroke="#0180bc"/><path d="M638,72L535,132L628,178Z" fill="#0181be" stroke="#0181be"/><path d="M638,72L628,178L731,171Z" fill="#0182bf" stroke="#0182bf"/><path d="M638,72L731,171L722,39Z" fill="#0181bd" stroke="#0181bd"/><path d="M722,39L731,171L838,169Z" fill="#0284bf" stroke="#0284bf"/><path d="M722,39L838,169L878,50Z" fill="#0283be" stroke="#0283be"/><path d="M878,50L838,169L939,114Z" fill="#0386c0" stroke="#0386c0"/><path d="M878,50L939,114L916,62Z" fill="#0384be" stroke="#0384be"/><path d="M916,62L939,114L1060,75Z" fill="#0384be" stroke="#0384be"/><path d="M1060,75L939,114L1034,144Z" fill="#0385bf" stroke="#0385bf"/><path d="M1060,75L1034,144L1123,113Z" fill="#0988c1" stroke="#0988c1"/><path d="M1060,75L1123,113L1137,80Z" fill="#0d89c1" stroke="#0d89c1"/><path d="M1137,80L1123,113L1250,136Z" fill="#138dc3" stroke="#138dc3"/><path d="M1137,80L1250,136L1213,21Z" fill="#148dc2" stroke="#148dc2"/><path d="M1213,21L1250,136L1352,80Z" fill="#178ec2" stroke="#178ec2"/><path d="M1352,80L1250,136L1339,162Z" fill="#1790c5" stroke="#1790c5"/><path d="M1352,80L1339,162L1462,68Z" fill="#0c8dc4" stroke="#0c8dc4"/><path d="M1462,68L1339,162L1489,172Z" fill="#048dc5" stroke="#048dc5"/><path d="M1462,68L1489,172L1524,164Z" fill="#008cc5" stroke="#008cc5"/><path d="M1462,68L1524,164L1558,35Z" fill="#0089c3" stroke="#0089c3"/><path d="M1558,35L1524,164L1633,118Z" fill="#0088c3" stroke="#0088c3"/><path d="M1558,35L1633,118L1663,81Z" fill="#0087c2" stroke="#0087c2"/><path d="M1663,81L1633,118L1689,287Z" fill="#0089c6" stroke="#0089c6"/><path d="M-31,134L-62,288L68,249Z" fill="#077ab4" stroke="#077ab4"/><path d="M-31,134L68,249L82,150Z" fill="#0078b3" stroke="#0078b3"/><path d="M82,150L68,249L126,225Z" fill="#037bb7" stroke="#037bb7"/><path d="M82,150L126,225L166,130Z" fill="#0079b6" stroke="#0079b6"/><path d="M166,130L126,225L265,230Z" fill="#007cb9" stroke="#007cb9"/><path d="M166,130L265,230L224,115Z" fill="#007ab7" stroke="#007ab7"/><path d="M224,115L265,230L349,133Z" fill="#007bb9" stroke="#007bb9"/><path d="M349,133L265,230L352,280Z" fill="#0580bd" stroke="#0580bd"/><path d="M349,133L352,280L476,189Z" fill="#0281be" stroke="#0281be"/><path d="M476,189L352,280L460,288Z" fill="#0e85c2" stroke="#0e85c2"/><path d="M476,189L460,288L586,246Z" fill="#0b86c2" stroke="#0b86c2"/><path d="M476,189L586,246L535,132Z" fill="#0184c0" stroke="#0184c0"/><path d="M535,132L586,246L628,178Z" fill="#0185c1" stroke="#0185c1"/><path d="M628,178L586,246L645,245Z" fill="#0787c4" stroke="#0787c4"/><path d="M628,178L645,245L731,171Z" fill="#0286c2" stroke="#0286c2"/><path d="M731,171L645,245L788,284Z" fill="#0a89c5" stroke="#0a89c5"/><path d="M731,171L788,284L838,169Z" fill="#0589c4" stroke="#0589c4"/><path d="M838,169L788,284L887,248Z" fill="#0c8cc6" stroke="#0c8cc6"/><path d="M838,169L887,248L939,114Z" fill="#0389c4" stroke="#0389c4"/><path d="M939,114L887,248L962,233Z" fill="#048ac5" stroke="#048ac5"/><path d="M939,114L962,233L1034,144Z" fill="#0388c2" stroke="#0388c2"/><path d="M1034,144L962,233L1024,278Z" fill="#098bc5" stroke="#098bc5"/><path d="M1034,144L1024,278L1146,252Z" fill="#108ec7" stroke="#108ec7"/><path d="M1034,144L1146,252L1123,113Z" fill="#0c8dc5" stroke="#0c8dc5"/><path d="M1123,113L1146,252L1250,136Z" fill="#1490c7" stroke="#1490c7"/><path d="M1250,136L1146,252L1221,252Z" fill="#1994ca" stroke="#1994ca"/><path d="M1250,136L1221,252L1339,162Z" fill="#1793c8" stroke="#1793c8"/><path d="M1339,162L1221,252L1359,281Z" fill="#2096cb" stroke="#2096cb"/><path d="M1339,162L1359,281L1415,269Z" fill="#1895cb" stroke="#1895cb"/><path d="M1339,162L1415,269L1489,172Z" fill="#0892c9" stroke="#0892c9"/><path d="M1489,172L1415,269L1527,274Z" fill="#0b92cb" stroke="#0b92cb"/><path d="M1489,172L1527,274L1524,164Z" fill="#0290c9" stroke="#0290c9"/><path d="M1524,164L1527,274L1633,118Z" fill="#008ec8" stroke="#008ec8"/><path d="M1633,118L1527,274L1689,287Z" fill="#088eca" stroke="#088eca"/><path d="M-62,288L-59,377L89,329Z" fill="#107eb6" stroke="#107eb6"/><path d="M-62,288L89,329L68,249Z" fill="#107db7" stroke="#107db7"/><path d="M68,249L89,329L126,225Z" fill="#107eb9" stroke="#107eb9"/><path d="M126,225L89,329L163,370Z" fill="#1080bb" stroke="#1080bb"/><path d="M126,225L163,370L265,230Z" fill="#1080bc" stroke="#1080bc"/><path d="M265,230L163,370L275,369Z" fill="#1082be" stroke="#1082be"/><path d="M265,230L275,369L335,344Z" fill="#1083bf" stroke="#1083bf"/><path d="M265,230L335,344L352,280Z" fill="#1083bf" stroke="#1083bf"/><path d="M352,280L335,344L427,372Z" fill="#1086c1" stroke="#1086c1"/><path d="M352,280L427,372L460,288Z" fill="#1087c3" stroke="#1087c3"/><path d="M460,288L427,372L524,339Z" fill="#1089c4" stroke="#1089c4"/><path d="M460,288L524,339L586,246Z" fill="#1088c4" stroke="#1088c4"/><path d="M586,246L524,339L683,372Z" fill="#108bc6" stroke="#108bc6"/><path d="M586,246L683,372L645,245Z" fill="#108ac6" stroke="#108ac6"/><path d="M645,245L683,372L723,341Z" fill="#118cc6" stroke="#118cc6"/><path d="M645,245L723,341L788,284Z" fill="#118bc6" stroke="#118bc6"/><path d="M788,284L723,341L886,343Z" fill="#128ec8" stroke="#128ec8"/><path d="M788,284L886,343L887,248Z" fill="#128ec8" stroke="#128ec8"/><path d="M887,248L886,343L962,233Z" fill="#138ec8" stroke="#138ec8"/><path d="M962,233L886,343L950,370Z" fill="#138fc9" stroke="#138fc9"/><path d="M962,233L950,370L1024,278Z" fill="#138fc8" stroke="#138fc8"/><path d="M1024,278L950,370L1072,331Z" fill="#138fc8" stroke="#138fc8"/><path d="M1024,278L1072,331L1146,252Z" fill="#1a91c9" stroke="#1a91c9"/><path d="M1146,252L1072,331L1152,364Z" fill="#1e95cb" stroke="#1e95cb"/><path d="M1146,252L1152,364L1221,252Z" fill="#2396cc" stroke="#2396cc"/><path d="M1221,252L1152,364L1246,362Z" fill="#2498cd" stroke="#2498cd"/><path d="M1221,252L1246,362L1359,281Z" fill="#2698cd" stroke="#2698cd"/><path d="M1359,281L1246,362L1348,361Z" fill="#269ace" stroke="#269ace"/><path d="M1359,281L1348,361L1415,269Z" fill="#1d97cd" stroke="#1d97cd"/><path d="M1415,269L1348,361L1480,379Z" fill="#1698cd" stroke="#1698cd"/><path d="M1415,269L1480,379L1527,274Z" fill="#1095cc" stroke="#1095cc"/><path d="M1527,274L1480,379L1572,329Z" fill="#1095cd" stroke="#1095cd"/><path d="M1527,274L1572,329L1632,333Z" fill="#1093cc" stroke="#1093cc"/><path d="M1527,274L1632,333L1689,287Z" fill="#1091cc" stroke="#1091cc"/><path d="M1689,287L1632,333L1645,452Z" fill="#1093cd" stroke="#1093cd"/><path d="M1689,287L1645,452L1690,531Z" fill="#1094cd" stroke="#1094cd"/><path d="M-59,377L-44,738L-37,477Z" fill="#1488ba" stroke="#1488ba"/><path d="M-59,377L-37,477L74,471Z" fill="#1080b8" stroke="#1080b8"/><path d="M-59,377L74,471L89,329Z" fill="#1082ba" stroke="#1082ba"/><path d="M89,329L74,471L156,430Z" fill="#1083bd" stroke="#1083bd"/><path d="M89,329L156,430L163,370Z" fill="#1084bd" stroke="#1084bd"/><path d="M163,370L156,430L214,447Z" fill="#1085bf" stroke="#1085bf"/><path d="M163,370L214,447L275,369Z" fill="#1086c0" stroke="#1086c0"/><path d="M275,369L214,447L312,443Z" fill="#1086c1" stroke="#1086c1"/><path d="M275,369L312,443L335,344Z" fill="#1087c2" stroke="#1087c2"/><path d="M335,344L312,443L427,372Z" fill="#1089c3" stroke="#1089c3"/><path d="M427,372L312,443L447,463Z" fill="#1089c4" stroke="#1089c4"/><path d="M427,372L447,463L564,420Z" fill="#108cc6" stroke="#108cc6"/><path d="M427,372L564,420L524,339Z" fill="#108cc6" stroke="#108cc6"/><path d="M524,339L564,420L683,372Z" fill="#108ec7" stroke="#108ec7"/><path d="M683,372L564,420L627,478Z" fill="#108ec8" stroke="#108ec8"/><path d="M683,372L627,478L731,435Z" fill="#118fc8" stroke="#118fc8"/><path d="M683,372L731,435L723,341Z" fill="#1190c9" stroke="#1190c9"/><path d="M723,341L731,435L886,343Z" fill="#1191c9" stroke="#1191c9"/><path d="M886,343L731,435L882,443Z" fill="#1292ca" stroke="#1292ca"/><path d="M886,343L882,443L950,370Z" fill="#1393cb" stroke="#1393cb"/><path d="M950,370L882,443L916,475Z" fill="#1393ca" stroke="#1393ca"/><path d="M950,370L916,475L1083,422Z" fill="#1392ca" stroke="#1392ca"/><path d="M950,370L1083,422L1072,331Z" fill="#1593ca" stroke="#1593ca"/><path d="M1072,331L1083,422L1152,364Z" fill="#1c97cc" stroke="#1c97cc"/><path d="M1152,364L1083,422L1179,452Z" fill="#2099ce" stroke="#2099ce"/><path d="M1152,364L1179,452L1230,423Z" fill="#239bce" stroke="#239bce"/><path d="M1152,364L1230,423L1246,362Z" fill="#249bcf" stroke="#249bcf"/><path d="M1246,362L1230,423L1348,361Z" fill="#269ccf" stroke="#269ccf"/><path d="M1348,361L1230,423L1335,470Z" fill="#279dcf" stroke="#279dcf"/><path d="M1348,361L1335,470L1435,437Z" fill="#1d9bcf" stroke="#1d9bcf"/><path d="M1348,361L1435,437L1480,379Z" fill="#159bcf" stroke="#159bcf"/><path d="M1480,379L1435,437L1576,462Z" fill="#1098ce" stroke="#1098ce"/><path d="M1480,379L1576,462L1572,329Z" fill="#1098ce" stroke="#1098ce"/><path d="M1572,329L1576,462L1632,333Z" fill="#1095ce" stroke="#1095ce"/><path d="M1632,333L1576,462L1645,452Z" fill="#1095ce" stroke="#1095ce"/><path d="M-37,477L-44,738L-23,639Z" fill="#0c88bc" stroke="#0c88bc"/><path d="M-37,477L-23,639L-19,532Z" fill="#1689bc" stroke="#1689bc"/><path d="M-37,477L-19,532L74,471Z" fill="#1285bb" stroke="#1285bb"/><path d="M74,471L-19,532L79,565Z" fill="#148abe" stroke="#148abe"/><path d="M74,471L79,565L174,517Z" fill="#148bc0" stroke="#148bc0"/><path d="M74,471L174,517L156,430Z" fill="#1185be" stroke="#1185be"/><path d="M156,430L174,517L214,447Z" fill="#1085bf" stroke="#1085bf"/><path d="M214,447L174,517L232,578Z" fill="#138cc3" stroke="#138cc3"/><path d="M214,447L232,578L312,443Z" fill="#128ac2" stroke="#128ac2"/><path d="M312,443L232,578L381,531Z" fill="#148ec5" stroke="#148ec5"/><path d="M312,443L381,531L447,463Z" fill="#118cc5" stroke="#118cc5"/><path d="M447,463L381,531L448,563Z" fill="#1492c8" stroke="#1492c8"/><path d="M447,463L448,563L536,550Z" fill="#1494c9" stroke="#1494c9"/><path d="M447,463L536,550L564,420Z" fill="#128fc8" stroke="#128fc8"/><path d="M564,420L536,550L627,478Z" fill="#1291c9" stroke="#1291c9"/><path d="M627,478L536,550L619,552Z" fill="#1596cb" stroke="#1596cb"/><path d="M627,478L619,552L743,515Z" fill="#1496cb" stroke="#1496cb"/><path d="M627,478L743,515L731,435Z" fill="#1291ca" stroke="#1291ca"/><path d="M731,435L743,515L882,443Z" fill="#1292ca" stroke="#1292ca"/><path d="M882,443L743,515L864,521Z" fill="#1597cc" stroke="#1597cc"/><path d="M882,443L864,521L916,475Z" fill="#1496cc" stroke="#1496cc"/><path d="M916,475L864,521L956,573Z" fill="#179bce" stroke="#179bce"/><path d="M916,475L956,573L1086,534Z" fill="#179ace" stroke="#179ace"/><path d="M916,475L1086,534L1083,422Z" fill="#1595cc" stroke="#1595cc"/><path d="M1083,422L1086,534L1179,452Z" fill="#1f99cd" stroke="#1f99cd"/><path d="M1179,452L1086,534L1151,553Z" fill="#24a0d1" stroke="#24a0d1"/><path d="M1179,452L1151,553L1265,539Z" fill="#27a2d1" stroke="#27a2d1"/><path d="M1179,452L1265,539L1230,423Z" fill="#269dcf" stroke="#269dcf"/><path d="M1230,423L1265,539L1335,470Z" fill="#289fd0" stroke="#289fd0"/><path d="M1335,470L1265,539L1366,541Z" fill="#29a4d3" stroke="#29a4d3"/><path d="M1335,470L1366,541L1435,437Z" fill="#1e9ed0" stroke="#1e9ed0"/><path d="M1435,437L1366,541L1446,527Z" fill="#19a0d1" stroke="#19a0d1"/><path d="M1435,437L1446,527L1576,462Z" fill="#119bcf" stroke="#119bcf"/><path d="M1576,462L1446,527L1567,520Z" fill="#139dd1" stroke="#139dd1"/><path d="M1576,462L1567,520L1645,452Z" fill="#1198cf" stroke="#1198cf"/><path d="M1645,452L1567,520L1690,531Z" fill="#139ad1" stroke="#139ad1"/><path d="M-19,532L-23,639L59,630Z" fill="#138abd" stroke="#138abd"/><path d="M-19,532L59,630L79,565Z" fill="#188bbf" stroke="#188bbf"/><path d="M79,565L59,630L146,620Z" fill="#118cc1" stroke="#118cc1"/><path d="M79,565L146,620L174,517Z" fill="#178dc2" stroke="#178dc2"/><path d="M174,517L146,620L232,578Z" fill="#178ec4" stroke="#178ec4"/><path d="M232,578L146,620L237,653Z" fill="#0d8ec4" stroke="#0d8ec4"/><path d="M232,578L237,653L373,622Z" fill="#0d8fc6" stroke="#0d8fc6"/><path d="M232,578L373,622L381,531Z" fill="#1891c7" stroke="#1891c7"/><path d="M381,531L373,622L448,563Z" fill="#1793c9" stroke="#1793c9"/><path d="M448,563L373,622L487,680Z" fill="#0b93c9" stroke="#0b93c9"/><path d="M448,563L487,680L529,629Z" fill="#0a94ca" stroke="#0a94ca"/><path d="M448,563L529,629L536,550Z" fill="#1896cb" stroke="#1896cb"/><path d="M536,550L529,629L619,552Z" fill="#1897cc" stroke="#1897cc"/><path d="M619,552L529,629L683,680Z" fill="#0c96cc" stroke="#0c96cc"/><path d="M619,552L683,680L737,652Z" fill="#0a97cc" stroke="#0a97cc"/><path d="M619,552L737,652L743,515Z" fill="#1899cd" stroke="#1899cd"/><path d="M743,515L737,652L836,635Z" fill="#149ace" stroke="#149ace"/><path d="M743,515L836,635L864,521Z" fill="#189bce" stroke="#189bce"/><path d="M864,521L836,635L956,573Z" fill="#1b9dcf" stroke="#1b9dcf"/><path d="M956,573L836,635L917,685Z" fill="#0b9bcf" stroke="#0b9bcf"/><path d="M956,573L917,685L1043,649Z" fill="#099ace" stroke="#099ace"/><path d="M956,573L1043,649L1086,534Z" fill="#1c9dcf" stroke="#1c9dcf"/><path d="M1086,534L1043,649L1131,646Z" fill="#1a9fd1" stroke="#1a9fd1"/><path d="M1086,534L1131,646L1151,553Z" fill="#26a2d2" stroke="#26a2d2"/><path d="M1151,553L1131,646L1223,650Z" fill="#20a3d3" stroke="#20a3d3"/><path d="M1151,553L1223,650L1265,539Z" fill="#2ca5d3" stroke="#2ca5d3"/><path d="M1265,539L1223,650L1320,621Z" fill="#28a5d3" stroke="#28a5d3"/><path d="M1265,539L1320,621L1366,541Z" fill="#2da6d3" stroke="#2da6d3"/><path d="M1366,541L1320,621L1451,671Z" fill="#1ba4d4" stroke="#1ba4d4"/><path d="M1366,541L1451,671L1446,527Z" fill="#1da4d3" stroke="#1da4d3"/><path d="M1446,527L1451,671L1565,613Z" fill="#12a1d3" stroke="#12a1d3"/><path d="M1446,527L1565,613L1567,520Z" fill="#16a1d3" stroke="#16a1d3"/><path d="M1567,520L1565,613L1690,531Z" fill="#169fd2" stroke="#169fd2"/><path d="M1690,531L1565,613L1662,677Z" fill="#109ed3" stroke="#109ed3"/><path d="M1690,531L1662,677L1680,770Z" fill="#009ad2" stroke="#009ad2"/><path d="M-23,639L-44,738L18,773Z" fill="#0083bc" stroke="#0083bc"/><path d="M-23,639L18,773L59,630Z" fill="#0086bd" stroke="#0086bd"/><path d="M59,630L18,773L127,729Z" fill="#0086bf" stroke="#0086bf"/><path d="M59,630L127,729L146,620Z" fill="#0089c1" stroke="#0089c1"/><path d="M146,620L127,729L237,653Z" fill="#008ac3" stroke="#008ac3"/><path d="M237,653L127,729L219,784Z" fill="#0087c3" stroke="#0087c3"/><path d="M237,653L219,784L356,719Z" fill="#0089c4" stroke="#0089c4"/><path d="M237,653L356,719L373,622Z" fill="#008dc6" stroke="#008dc6"/><path d="M373,622L356,719L487,680Z" fill="#008fc8" stroke="#008fc8"/><path d="M487,680L356,719L418,767Z" fill="#008dc8" stroke="#008dc8"/><path d="M487,680L418,767L548,716Z" fill="#008eca" stroke="#008eca"/><path d="M487,680L548,716L529,629Z" fill="#0192cb" stroke="#0192cb"/><path d="M529,629L548,716L626,728Z" fill="#0192cb" stroke="#0192cb"/><path d="M529,629L626,728L683,680Z" fill="#0193cc" stroke="#0193cc"/><path d="M683,680L626,728L734,787Z" fill="#0191cc" stroke="#0191cc"/><path d="M683,680L734,787L737,652Z" fill="#0193cc" stroke="#0193cc"/><path d="M737,652L734,787L836,635Z" fill="#0295cd" stroke="#0295cd"/><path d="M836,635L734,787L875,781Z" fill="#0294cd" stroke="#0294cd"/><path d="M836,635L875,781L914,743Z" fill="#0396ce" stroke="#0396ce"/><path d="M836,635L914,743L917,685Z" fill="#0398ce" stroke="#0398ce"/><path d="M917,685L914,743L1078,715Z" fill="#0396ce" stroke="#0396ce"/><path d="M917,685L1078,715L1043,649Z" fill="#0397ce" stroke="#0397ce"/><path d="M1043,649L1078,715L1131,646Z" fill="#0a9cd0" stroke="#0a9cd0"/><path d="M1131,646L1078,715L1179,758Z" fill="#0f9cd1" stroke="#0f9cd1"/><path d="M1131,646L1179,758L1223,650Z" fill="#149fd2" stroke="#149fd2"/><path d="M1223,650L1179,758L1256,784Z" fill="#159ed2" stroke="#159ed2"/><path d="M1223,650L1256,784L1350,736Z" fill="#179fd3" stroke="#179fd3"/><path d="M1223,650L1350,736L1320,621Z" fill="#17a2d3" stroke="#17a2d3"/><path d="M1320,621L1350,736L1451,671Z" fill="#0da0d3" stroke="#0da0d3"/><path d="M1451,671L1350,736L1427,790Z" fill="#089cd2" stroke="#089cd2"/><path d="M1451,671L1427,790L1557,755Z" fill="#009bd2" stroke="#009bd2"/><path d="M1451,671L1557,755L1565,613Z" fill="#009dd3" stroke="#009dd3"/><path d="M1565,613L1557,755L1662,677Z" fill="#009bd2" stroke="#009bd2"/><path d="M1662,677L1557,755L1680,770Z" fill="#0097d2" stroke="#0097d2"/><path d="M-44,738L-27,832L18,773Z" fill="#0080bb" stroke="#0080bb"/><path d="M18,773L-27,832L65,875Z" fill="#007ebc" stroke="#007ebc"/><path d="M18,773L65,875L132,814Z" fill="#0080be" stroke="#0080be"/><path d="M18,773L132,814L127,729Z" fill="#0083bf" stroke="#0083bf"/><path d="M127,729L132,814L219,784Z" fill="#0084c2" stroke="#0084c2"/><path d="M219,784L132,814L255,846Z" fill="#0083c2" stroke="#0083c2"/><path d="M219,784L255,846L356,719Z" fill="#0086c4" stroke="#0086c4"/><path d="M356,719L255,846L326,861Z" fill="#0085c5" stroke="#0085c5"/><path d="M356,719L326,861L418,767Z" fill="#0088c6" stroke="#0088c6"/><path d="M418,767L326,861L430,882Z" fill="#0086c7" stroke="#0086c7"/><path d="M418,767L430,882L526,847Z" fill="#0088c8" stroke="#0088c8"/><path d="M418,767L526,847L548,716Z" fill="#008cc9" stroke="#008cc9"/><path d="M548,716L526,847L620,815Z" fill="#018cca" stroke="#018cca"/><path d="M548,716L620,815L626,728Z" fill="#018fcb" stroke="#018fcb"/><path d="M626,728L620,815L734,787Z" fill="#018ecb" stroke="#018ecb"/><path d="M734,787L620,815L768,842Z" fill="#018dcb" stroke="#018dcb"/><path d="M734,787L768,842L857,821Z" fill="#028fcc" stroke="#028fcc"/><path d="M734,787L857,821L875,781Z" fill="#0391cd" stroke="#0391cd"/><path d="M875,781L857,821L974,880Z" fill="#0390cd" stroke="#0390cd"/><path d="M875,781L974,880L914,743Z" fill="#0391ce" stroke="#0391ce"/><path d="M914,743L974,880L1054,868Z" fill="#0390cd" stroke="#0390cd"/><path d="M914,743L1054,868L1078,715Z" fill="#0392cd" stroke="#0392cd"/><path d="M1078,715L1054,868L1179,758Z" fill="#0d97d0" stroke="#0d97d0"/><path d="M1179,758L1054,868L1166,886Z" fill="#1095d0" stroke="#1095d0"/><path d="M1179,758L1166,886L1256,784Z" fill="#1499d2" stroke="#1499d2"/><path d="M1256,784L1166,886L1289,883Z" fill="#1697d1" stroke="#1697d1"/><path d="M1256,784L1289,883L1372,814Z" fill="#189ad2" stroke="#189ad2"/><path d="M1256,784L1372,814L1350,736Z" fill="#159cd2" stroke="#159cd2"/><path d="M1350,736L1372,814L1427,790Z" fill="#0c9ad2" stroke="#0c9ad2"/><path d="M1427,790L1372,814L1429,822Z" fill="#0898d2" stroke="#0898d2"/><path d="M1427,790L1429,822L1525,870Z" fill="#0096d1" stroke="#0096d1"/><path d="M1427,790L1525,870L1557,755Z" fill="#0096d2" stroke="#0096d2"/><path d="M1557,755L1525,870L1627,820Z" fill="#0094d1" stroke="#0094d1"/><path d="M1557,755L1627,820L1680,770Z" fill="#0095d1" stroke="#0095d1"/><path d="M65,875L430,882L326,861Z" fill="#0081c3" stroke="#0081c3"/><path d="M65,875L326,861L255,846Z" fill="#0080c2" stroke="#0080c2"/><path d="M65,875L255,846L132,814Z" fill="#0080c1" stroke="#0080c1"/><path d="M430,882L1166,886L974,880Z" fill="#038dcd" stroke="#038dcd"/><path d="M430,882L974,880L768,842Z" fill="#018bcb" stroke="#018bcb"/><path d="M430,882L768,842L526,847Z" fill="#0189ca" stroke="#0189ca"/><path d="M526,847L768,842L620,815Z" fill="#018bcb" stroke="#018bcb"/><path d="M768,842L974,880L857,821Z" fill="#038fcd" stroke="#038fcd"/><path d="M974,880L1166,886L1054,868Z" fill="#088fce" stroke="#088fce"/><path d="M1289,883L1525,870L1429,822Z" fill="#0796d1" stroke="#0796d1"/><path d="M1289,883L1429,822L1372,814Z" fill="#0f98d2" stroke="#0f98d2"/></g></svg>